Largo Winch 1 & 2 BDRip 1080p [mkvonly]

~~~~~~~~~~~~~~~~~~~~~~~~~~~~~~~~~~~~~~~~~~~~~~~~~~~~~~~~~~~~~~~~~~~~~~~~~~~~

Largo Winch (2008) [mkvonly]
 
http://www.bilderkiste.org/show/original/7131255878581/2008.jpg

Format                           : Matroska
File size                        : 4.60 GiB
Duration                         : 1h 48mn
Overall bit rate                 : 6 048 Kbps

Video
Display aspect ratio             : 1920 x 820 (2.35:1)
Frame rate                       : 23.976 fps
Stream size                      : 3.93 GiB (86%)
Writing library                  : x264 core 112
Encoding settings                : cabac=1 / ref=5 / deblock=1:-1:-1 / me=tesa / subme=10 / me_range=64 / trellis=2 / 8x8dct=1 / bframes=6 / b_pyramid=1 / b_adapt=2 / rc=2pass / mbtree=1 / bitrate=5300 /

Audio  English + some French, DTS 768 KB/s, 587 MiB (12%)

Subtitles: English, French for non-French speaking

~~~~~~~~~~~~~~~~~~~~~~~~~~~~~~~~~~~~~~~~~~~~~~~~~~~~~~~~~~~~~~~~~~~~~~~~~~~~~~~~~~

Largo Winch (Tome 2) (2011) [mkvonly]
 
http://www.bilderkiste.org/show/original/2131255880989/2011.jpg

Format                           : Matroska
File size                        : 5.02 GiB
Duration                         : 1h 58mn

Video
Bit rate                         : 5 300 Kbps
Display aspect ratio             : 1920 x 800 (2.40:1)
Frame rate                       : 23.976 fps
Stream size                      : 4.29 GiB (86%)
Title                            : Largo Winch (Tome 2) (2011) [mkvonly]
Writing library                  : x264 core 88
Encoding settings                : cabac=1 / ref=5 / deblock=1:-1:-1 / me=umh / subme=9 / me_range=64 / chroma_me=1 / trellis=2 / 8x8dct=1 / bframes=7 / b_pyramid=2 / rc=2pass / mbtree=1 / bitrate=5300 /

Audio  English + some French, DTS 768 KB/s, 640 MiB (12%)

Subtitles: English, French srt, French full VobSub left-center-right tricolor (recomended)

Note: These are the original Audio tracks, (English-French).
The only French audios have dubbed parts over the English so they are removed.

Both were ripped from BD50 not from some crappy shrinked BD25 or remux etc.
All Largo Winch (Tome 2) rips floating around were ripped from an awful fast-shrinked remux.

Those who understand Encoding settings will get an idea about the quality of these rips ;-)